<svg width="30" height="30" viewBox="0 0 30 30" fill="none" xmlns="http://www.w3.org/2000/svg">
<path d="M9.46612 11.3995C9.46612 10.3318 10.3317 9.46619 11.3995 9.46619C12.4672 9.46619 13.3328 10.3318 13.3328 11.3995C13.3328 12.4673 12.4672 13.3329 11.3995 13.3329C10.3317 13.3329 9.46612 12.4673 9.46612 11.3995Z" fill="#B51D1D"/>
<path d="M16.6666 11.3995C16.6666 10.3318 17.5322 9.46619 18.6 9.46619C19.6677 9.46619 20.5333 10.3318 20.5333 11.3995C20.5333 12.4673 19.6677 13.3329 18.6 13.3329C17.5322 13.3329 16.6666 12.4673 16.6666 11.3995Z" fill="#B51D1D"/>
<path d="M9.57597 15.9111L10.1098 17.1329C10.934 19.0193 12.815 20.3334 14.9999 20.3334C17.1849 20.3334 19.0659 19.0193 19.8901 17.1329L20.4239 15.9111L22.8675 16.9787L22.3337 18.2005C21.1004 21.0232 18.2825 23 14.9999 23C11.7174 23 8.89947 21.0232 7.6662 18.2005L7.13237 16.9787L9.57597 15.9111Z" fill="#B51D1D"/>
<path fill-rule="evenodd" clip-rule="evenodd" d="M0.333313 15C0.333313 6.89986 6.8998 0.333374 15 0.333374C23.1002 0.333374 29.6666 6.89986 29.6666 15C29.6666 23.1002 23.1002 29.6667 15 29.6667C6.8998 29.6667 0.333313 23.1002 0.333313 15ZM15 3.00004C8.37256 3.00004 2.99998 8.37262 2.99998 15C2.99998 21.6275 8.37256 27 15 27C21.6274 27 27 21.6275 27 15C27 8.37262 21.6274 3.00004 15 3.00004Z" fill="#B51D1D"/>
</svg>
